<svg version="1.1" id="Layer_1" xmlns:x="ns_extend;" xmlns:i="ns_ai;" xmlns:graph="ns_graphs;" xmlns="http://www.w3.org/2000/svg" xmlns:xlink="http://www.w3.org/1999/xlink" x="0px" y="0px" viewBox="0 0 42.7 42.9" style="enable-background:new 0 0 42.7 42.9;" xml:space="preserve">
 <style type="text/css">
  .st0{fill-rule:evenodd;clip-rule:evenodd;fill:#00D54B;}
 </style>
 <metadata>
  <sfw xmlns="ns_sfw;">
   <slices>
   </slices>
   <sliceSourceBounds bottomLeftOrigin="true" height="42.9" width="42.7" x="103.1" y="-221.7">
   </sliceSourceBounds>
  </sfw>
 </metadata>
 <g>
  <path class="st0" d="M9.9,0C4.4,0,0,4.4,0,9.9V33c0,5.5,4.4,9.9,9.9,9.9h22.9c5.5,0,9.9-4.4,9.9-9.9V9.9c0-5.5-4.4-9.9-9.9-9.9H9.9
		z M28.3,16c-1.6-1.4-3.7-2.1-5.8-2.1c-1.8,0-3.5,0.6-3.5,2.2c0,1.5,1.6,2.1,3.5,2.8c0.2,0.1,0.4,0.1,0.6,0.2c3.8,1.3,7,2.9,7,6.6
		c0,4.1-3.2,6.8-8.3,7.2l-0.5,2.2c-0.1,0.4-0.4,0.7-0.9,0.7h-3.2c-0.3,0-0.5-0.1-0.7-0.3c-0.2-0.2-0.2-0.5-0.2-0.7l0.5-2.3
		c-1.9-0.5-3.7-1.5-5.2-2.9c-0.2-0.2-0.3-0.4-0.3-0.6c0-0.2,0.1-0.5,0.3-0.6l1.8-1.8c0.3-0.3,0.9-0.3,1.2,0c1.6,1.6,3.9,2.4,6.1,2.4
		c2.3,0,3.9-1,3.9-2.6c0-1.4-1.3-1.9-3.8-2.8c-0.3-0.1-0.5-0.2-0.8-0.3c-3.2-1.1-6.2-2.8-6.2-6.5c0-4.4,3.6-6.5,8-6.7l0.5-2.2
		C22.3,7.2,22.7,7,23.1,7h3.2c0.3,0,0.5,0.1,0.7,0.3c0.2,0.2,0.2,0.5,0.2,0.7l-0.5,2.5c1.6,0.5,3.2,1.4,4.5,2.5
		c0.2,0.2,0.3,0.4,0.3,0.6c0,0.2-0.1,0.5-0.3,0.6l-1.7,1.7C29.2,16.3,28.6,16.3,28.3,16z">
  </path>
 </g>
</svg>