<?xml version="1.0" encoding="utf-8"?>
<!-- Uploaded to: SVG Repo, www.svgrepo.com, Generator: SVG Repo Mixer Tools -->
<svg fill="#000000" width="800px" height="800px" viewBox="0 0 32 32" version="1.1" xmlns="http://www.w3.org/2000/svg">
<title>kickstarter</title>
<path d="M9.962 1.004c-0.007-0-0.014-0-0.022-0-3.979 0-7.207 3.218-7.222 7.194v15.602c0.034 3.981 3.27 7.195 7.256 7.195 2.451 0 4.617-1.215 5.931-3.075l0.015-0.023 0.992 0.987c1.317 1.301 3.127 2.104 5.125 2.104s3.809-0.803 5.126-2.105l-0.001 0.001c1.309-1.3 2.119-3.101 2.119-5.092s-0.81-3.791-2.119-5.091l-0-0-2.727-2.709 2.727-2.694c1.309-1.3 2.119-3.101 2.119-5.091s-0.81-3.791-2.119-5.091l-0-0c-1.316-1.301-3.127-2.105-5.125-2.105s-3.809 0.804-5.126 2.106l0.001-0.001-0.992 0.986c-1.327-1.883-3.492-3.098-5.94-3.098-0.006 0-0.013 0-0.019 0h0.001z"></path>
</svg>