<svg width="46" height="45" viewBox="0 0 46 45" fill="none" xmlns="http://www.w3.org/2000/svg">
<path d="M38.4 11.65C39.1667 11.7167 39.8 12.05 40.3 12.65C40.8333 13.2167 41.0667 13.8833 41 14.65C40 24.1167 37.2167 31.1333 32.65 35.7C28.0833 40.2333 21.1 43.1333 11.7 44.4C10.9 44.5 10.1667 44.3167 9.5 43.85C8.86667 43.3833 8.48333 42.75 8.35 41.95L7.95 40.05C7.81667 39.3167 7.96667 38.65 8.4 38.05C8.83333 37.4167 9.43333 37.0333 10.2 36.9C17.7333 35.7667 23.2 33.5333 26.6 30.2C30.0333 26.8667 32.15 21.5 32.95 14.1C33.0167 13.3333 33.35 12.7 33.95 12.2C34.5833 11.6667 35.2833 11.4167 36.05 11.45L38.4 11.65ZM35.55 3.1C35.7167 3.4 35.95 3.85 36.25 4.45C36.55 5.01666 36.7833 5.45 36.95 5.75C37.2833 6.41666 37.3333 7.08333 37.1 7.75C36.8667 8.41666 36.4167 8.9 35.75 9.2C35.1167 9.5 34.45 9.55 33.75 9.35C33.0833 9.11666 32.5833 8.68333 32.25 8.05C32.0833 7.75 31.85 7.31667 31.55 6.75C31.25 6.15 31.0167 5.7 30.85 5.4C30.5167 4.76666 30.45 4.11666 30.65 3.45C30.8833 2.75 31.3167 2.23333 31.95 1.9C32.6167 1.56666 33.2833 1.51666 33.95 1.75C34.65 1.98333 35.1833 2.43333 35.55 3.1ZM43.2 2.35C43.3667 2.68333 43.6 3.16666 43.9 3.8C44.2333 4.43333 44.4667 4.88333 44.6 5.15C44.9333 5.81667 44.9833 6.48333 44.75 7.15C44.5167 7.81666 44.0667 8.31666 43.4 8.65C42.7333 8.98333 42.05 9.03333 41.35 8.8C40.6833 8.56667 40.1667 8.11667 39.8 7.45C39.5 6.85 39.0167 5.95 38.35 4.75C38.0167 4.08333 37.95 3.41666 38.15 2.75C38.3833 2.05 38.8333 1.53333 39.5 1.2C40.1667 0.866665 40.8667 0.816664 41.6 1.05C42.3333 1.28333 42.8667 1.71666 43.2 2.35ZM3.2 22.55C1.93333 17.4833 0.983334 13.75 0.35 11.35C0.15 10.6167 0.233333 9.91666 0.6 9.25C1 8.58333 1.58333 8.16667 2.35 8L4.35 7.5C5.11667 7.33333 5.83333 7.46666 6.5 7.9C7.2 8.3 7.66667 8.88333 7.9 9.65C8.96667 13.4167 9.98333 17.1667 10.95 20.9C11.15 21.6333 11.0333 22.3333 10.6 23C10.2 23.6333 9.61667 24.0333 8.85 24.2L6.65 24.7C5.88333 24.8667 5.15 24.75 4.45 24.35C3.78333 23.9167 3.36667 23.3167 3.2 22.55ZM20.25 23.5C19.4833 23.6667 18.7667 23.55 18.1 23.15C17.4333 22.7167 17 22.1167 16.8 21.35C15.6333 16.7833 14.6 12.9 13.7 9.7C13.5 8.96666 13.6 8.28333 14 7.65C14.4 6.98333 14.9833 6.56667 15.75 6.4L17.95 5.9C18.7167 5.73333 19.4333 5.86666 20.1 6.3C20.8 6.7 21.25 7.28333 21.45 8.05C22.8833 13.2833 23.9167 17.15 24.55 19.65C24.75 20.3833 24.6333 21.0833 24.2 21.75C23.8 22.4167 23.2167 22.8333 22.45 23L20.25 23.5Z" fill="white"/>
</svg>
