<svg width="20" height="20" viewBox="0 0 20 20" fill="none" xmlns="http://www.w3.org/2000/svg">
<g clip-path="url(#clip0_639_59)">
<path fill-rule="evenodd" clip-rule="evenodd" d="M9.99995 0C12.6512 0.0029116 15.1926 1.05789 17.0673 2.93262C18.9421 4.80735 19.997 7.34873 20 10C20 11.9778 19.4132 13.9112 18.3144 15.5557C17.2156 17.2001 15.6543 18.4824 13.8271 19.2393C11.9998 19.9961 9.98859 20.1935 8.04878 19.8076C6.10909 19.4217 4.32711 18.4697 2.92866 17.0713C1.53021 15.6728 0.578223 13.8909 0.192332 11.9512C-0.19352 10.0114 0.00381535 8.00011 0.760692 6.17285C1.51756 4.34567 2.79987 2.78434 4.44429 1.68555C6.08878 0.586734 8.02214 9.42665e-07 9.99995 0ZM14.8808 2.74219C13.2611 1.65387 11.3242 1.13814 9.37788 1.27734C7.4315 1.41656 5.58789 2.20299 4.1396 3.51074C2.69142 4.8184 1.72126 6.57219 1.38472 8.49414C1.04824 10.4163 1.36426 12.3962 2.28218 14.1182C3.2001 15.8401 4.66777 17.2059 6.45112 17.998C8.23435 18.79 10.2311 18.9626 12.124 18.4893C14.017 18.0159 15.6978 16.9231 16.8984 15.3848C18.0988 13.8465 18.7506 11.9512 18.75 10C18.7491 8.78893 18.4959 7.5913 18.0068 6.4834C17.5177 5.37564 16.8033 4.38196 15.9091 3.56543L10.9345 15.5508H9.581L14.8808 2.74219Z" fill="#c8cfd4"/>
<path d="M7.58916 13.1128C7.05563 13.1128 6.5597 13.0465 6.10137 12.9141C5.64303 12.7816 5.19723 12.5614 4.76396 12.2534V10.4541H5.81133L5.9832 11.6196C6.17298 11.7557 6.40573 11.8649 6.68145 11.9473C6.96074 12.0296 7.26331 12.0708 7.58916 12.0708C7.90784 12.0708 8.17461 12.026 8.38945 11.9365C8.60788 11.8434 8.77438 11.7145 8.88896 11.5498C9.00355 11.3851 9.06084 11.1899 9.06084 10.9644C9.06084 10.7567 9.01071 10.5723 8.91045 10.4111C8.81019 10.25 8.64368 10.1068 8.41094 9.98145C8.17819 9.85254 7.86309 9.73438 7.46562 9.62695C6.88197 9.4694 6.3932 9.2832 5.99932 9.06836C5.60902 8.85352 5.31361 8.5957 5.11309 8.29492C4.91615 7.99414 4.81768 7.63965 4.81768 7.23145C4.81768 6.8125 4.93047 6.44189 5.15605 6.11963C5.38522 5.79736 5.70212 5.54313 6.10674 5.35693C6.51136 5.17074 6.97865 5.07585 7.50859 5.07227C8.08867 5.0651 8.60072 5.1403 9.04473 5.29785C9.49232 5.4554 9.87008 5.6613 10.178 5.91553V7.59668H9.15215L8.95879 6.50098C8.81198 6.39714 8.62041 6.30941 8.38408 6.23779C8.15133 6.1626 7.87562 6.125 7.55693 6.125C7.2848 6.125 7.04489 6.16976 6.83721 6.25928C6.62952 6.3488 6.4666 6.47591 6.34844 6.64062C6.23027 6.80176 6.17119 6.99512 6.17119 7.2207C6.17119 7.41764 6.22311 7.58952 6.32695 7.73633C6.43079 7.88314 6.60446 8.01742 6.84795 8.13916C7.09144 8.25732 7.42087 8.37728 7.83623 8.49902C8.68486 8.72461 9.3276 9.03613 9.76445 9.43359C10.2013 9.83105 10.4197 10.3377 10.4197 10.9536C10.4197 11.3869 10.3016 11.7664 10.0652 12.0923C9.83249 12.4146 9.50306 12.6652 9.07695 12.8442C8.65443 13.0233 8.1585 13.1128 7.58916 13.1128Z" fill="#c8cfd4"/>
</g>
<defs>
<clipPath id="clip0_639_59">
<rect width="20" height="20" fill="#c8cfd4"/>
</clipPath>
</defs>
</svg>
