<svg width="250" height="249" viewBox="0 0 250 249" fill="none" xmlns="http://www.w3.org/2000/svg">
<path fill-rule="evenodd" clip-rule="evenodd" d="M250 115.451C250 179.227 194.039 230.916 125 230.916C113.073 230.932 101.197 229.363 89.6842 226.251C64.9342 242.557 33.9868 247.497 17.5132 248.982C13.75 249.337 11.8026 244.423 14.3553 241.637C22.1842 233.097 33.1842 217.948 36.9211 197.385C14.1184 176.455 0 147.484 0 115.451C0 51.6884 55.9605 0 125 0C194.039 0 250 51.6884 250 115.451Z" fill="#5BAE4A"/>
<path d="M174.165 92.2343C176.331 92.4223 178.12 93.3627 179.533 95.0554C181.04 96.6541 181.699 98.5349 181.511 100.698C178.686 127.405 170.821 147.2 157.918 160.084C145.014 172.873 125.283 181.054 98.7224 184.628C96.4619 184.91 94.3898 184.393 92.5061 183.076C90.7166 181.76 89.6335 179.973 89.2568 177.716L88.1265 172.356C87.7498 170.287 88.1736 168.406 89.398 166.713C90.6224 164.927 92.3178 163.845 94.484 163.469C115.77 160.272 131.216 153.971 140.823 144.567C150.524 135.163 156.505 120.023 158.765 99.1461C158.954 96.9832 159.896 95.1965 161.591 93.7859C163.38 92.2813 165.358 91.576 167.525 91.67L174.165 92.2343ZM166.112 68.1131C166.583 68.9595 167.242 70.229 168.09 71.9217C168.937 73.5204 169.597 74.7429 170.068 75.5893C171.009 77.4701 171.151 79.3509 170.491 81.2316C169.832 83.1124 168.561 84.476 166.677 85.3224C164.887 86.1687 163.004 86.3098 161.026 85.7455C159.142 85.0873 157.729 83.8648 156.787 82.078C156.317 81.2317 155.657 80.0091 154.81 78.4105C153.962 76.7178 153.303 75.4482 152.832 74.6019C151.89 72.8151 151.701 70.9813 152.267 69.1006C152.926 67.1257 154.15 65.6681 155.94 64.7277C157.824 63.7873 159.707 63.6463 161.591 64.3046C163.569 64.9628 165.076 66.2324 166.112 68.1131ZM187.727 65.9973C188.198 66.9377 188.857 68.3012 189.705 70.088C190.647 71.8747 191.306 73.1443 191.683 73.8966C192.625 75.7774 192.766 77.6581 192.107 79.5389C191.448 81.4197 190.176 82.8303 188.292 83.7707C186.409 84.7111 184.478 84.8522 182.5 84.1939C180.616 83.5356 179.156 82.2661 178.12 80.3853C177.273 78.6926 175.907 76.1535 174.023 72.7681C173.081 70.8873 172.893 69.0065 173.458 67.1257C174.118 65.1509 175.389 63.6933 177.273 62.7529C179.156 61.8125 181.134 61.6714 183.206 62.3297C185.278 62.988 186.785 64.2105 187.727 65.9973ZM74.7052 122.985C71.1261 108.691 68.4418 98.1587 66.6523 91.3879C66.0872 89.319 66.3227 87.3442 67.3587 85.4634C68.4889 83.5826 70.1372 82.4071 72.3034 81.9369L77.9545 80.5264C80.1208 80.0562 82.1458 80.4323 84.0295 81.6548C86.0074 82.7833 87.326 84.429 87.9853 86.5919C90.9992 97.2184 93.8718 107.798 96.6032 118.33C97.1683 120.399 96.8387 122.374 95.6143 124.255C94.484 126.041 92.8358 127.17 90.6695 127.64L84.4533 129.051C82.2871 129.521 80.215 129.192 78.2371 128.063C76.3534 126.841 75.1761 125.148 74.7052 122.985ZM122.881 125.665C120.715 126.135 118.69 125.806 116.806 124.678C114.922 123.455 113.698 121.763 113.133 119.6C109.836 106.716 106.916 95.7607 104.373 86.733C103.808 84.6641 104.091 82.7363 105.221 80.9495C106.351 79.0687 108 77.8932 110.166 77.4231L116.382 76.0125C118.548 75.5423 120.573 75.9184 122.457 77.1409C124.435 78.2694 125.706 79.9151 126.271 82.078C130.321 96.8422 133.241 107.751 135.031 114.804C135.596 116.873 135.266 118.847 134.042 120.728C132.912 122.609 131.263 123.784 129.097 124.255L122.881 125.665Z" fill="white"/>
</svg>
