<svg width="50" height="50" viewBox="0 0 50 50" fill="none" xmlns="http://www.w3.org/2000/svg">
<g clip-path="url(#clip0_706_1002)">
<path d="M42.4 13.65C43.1667 13.7167 43.8 14.05 44.3 14.65C44.8333 15.2167 45.0667 15.8833 45 16.65C44 26.1167 41.2167 33.1333 36.65 37.7C32.0833 42.2333 25.1 45.1333 15.7 46.4C14.9 46.5 14.1667 46.3167 13.5 45.85C12.8667 45.3833 12.4833 44.75 12.35 43.95L11.95 42.05C11.8167 41.3167 11.9667 40.65 12.4 40.05C12.8333 39.4167 13.4333 39.0333 14.2 38.9C21.7333 37.7667 27.2 35.5333 30.6 32.2C34.0333 28.8667 36.15 23.5 36.95 16.1C37.0167 15.3333 37.35 14.7 37.95 14.2C38.5833 13.6667 39.2833 13.4167 40.05 13.45L42.4 13.65ZM39.55 5.1C39.7167 5.4 39.95 5.85 40.25 6.45C40.55 7.01666 40.7833 7.45 40.95 7.75C41.2833 8.41666 41.3333 9.08333 41.1 9.75C40.8667 10.4167 40.4167 10.9 39.75 11.2C39.1167 11.5 38.45 11.55 37.75 11.35C37.0833 11.1167 36.5833 10.6833 36.25 10.05C36.0833 9.75 35.85 9.31667 35.55 8.75C35.25 8.15 35.0167 7.7 34.85 7.4C34.5167 6.76666 34.45 6.11666 34.65 5.45C34.8833 4.75 35.3167 4.23333 35.95 3.9C36.6167 3.56666 37.2833 3.51666 37.95 3.75C38.65 3.98333 39.1833 4.43333 39.55 5.1ZM47.2 4.35C47.3667 4.68333 47.6 5.16666 47.9 5.8C48.2333 6.43333 48.4667 6.88333 48.6 7.15C48.9333 7.81667 48.9833 8.48333 48.75 9.15C48.5167 9.81666 48.0667 10.3167 47.4 10.65C46.7333 10.9833 46.05 11.0333 45.35 10.8C44.6833 10.5667 44.1667 10.1167 43.8 9.45C43.5 8.85 43.0167 7.95 42.35 6.75C42.0167 6.08333 41.95 5.41666 42.15 4.75C42.3833 4.05 42.8333 3.53333 43.5 3.2C44.1667 2.86666 44.8667 2.81666 45.6 3.05C46.3333 3.28333 46.8667 3.71666 47.2 4.35ZM7.2 24.55C5.93333 19.4833 4.98333 15.75 4.35 13.35C4.15 12.6167 4.23333 11.9167 4.6 11.25C5 10.5833 5.58333 10.1667 6.35 10L8.35 9.5C9.11667 9.33333 9.83333 9.46666 10.5 9.9C11.2 10.3 11.6667 10.8833 11.9 11.65C12.9667 15.4167 13.9833 19.1667 14.95 22.9C15.15 23.6333 15.0333 24.3333 14.6 25C14.2 25.6333 13.6167 26.0333 12.85 26.2L10.65 26.7C9.88333 26.8667 9.15 26.75 8.45 26.35C7.78333 25.9167 7.36667 25.3167 7.2 24.55ZM24.25 25.5C23.4833 25.6667 22.7667 25.55 22.1 25.15C21.4333 24.7167 21 24.1167 20.8 23.35C19.6333 18.7833 18.6 14.9 17.7 11.7C17.5 10.9667 17.6 10.2833 18 9.65C18.4 8.98333 18.9833 8.56667 19.75 8.4L21.95 7.9C22.7167 7.73333 23.4333 7.86666 24.1 8.3C24.8 8.7 25.25 9.28333 25.45 10.05C26.8833 15.2833 27.9167 19.15 28.55 21.65C28.75 22.3833 28.6333 23.0833 28.2 23.75C27.8 24.4167 27.2167 24.8333 26.45 25L24.25 25.5Z" fill="#171B1F"/>
</g>
<defs>
<clipPath id="clip0_706_1002">
<rect width="50" height="50" fill="white"/>
</clipPath>
</defs>
</svg>
