<svg width="200" height="200" viewBox="0 0 200 200" fill="none" xmlns="http://www.w3.org/2000/svg">
<g clip-path="url(#clip0_706_1002)">
<path d="M169.6 53.6C172.667 53.8667 175.2 55.2 177.2 57.6C179.333 59.8667 180.267 62.5333 180 65.6C176 103.467 164.867 131.533 146.6 149.8C128.333 167.933 100.4 179.533 62.8 184.6C59.6 185 56.6667 184.267 54 182.4C51.4667 180.533 49.9333 178 49.4 174.8L47.8 167.2C47.2667 164.267 47.8667 161.6 49.6 159.2C51.3333 156.667 53.7333 155.133 56.8 154.6C86.9333 150.067 108.8 141.133 122.4 127.8C136.133 114.467 144.6 93 147.8 63.4C148.067 60.3333 149.4 57.8 151.8 55.8C154.333 53.6667 157.133 52.6667 160.2 52.8L169.6 53.6ZM158.2 19.4C158.867 20.6 159.8 22.4 161 24.8C162.2 27.0667 163.133 28.8 163.8 30C165.133 32.6667 165.333 35.3333 164.4 38C163.467 40.6667 161.667 42.6 159 43.8C156.467 45 153.8 45.2 151 44.4C148.333 43.4667 146.333 41.7333 145 39.2C144.333 38 143.4 36.2667 142.2 34C141 31.6 140.067 29.8 139.4 28.6C138.067 26.0667 137.8 23.4667 138.6 20.8C139.533 18 141.267 15.9333 143.8 14.6C146.467 13.2667 149.133 13.0667 151.8 14C154.6 14.9333 156.733 16.7333 158.2 19.4ZM188.8 16.4C189.467 17.7333 190.4 19.6667 191.6 22.2C192.933 24.7333 193.867 26.5333 194.4 27.6C195.733 30.2667 195.933 32.9333 195 35.6C194.067 38.2667 192.267 40.2667 189.6 41.6C186.933 42.9333 184.2 43.1333 181.4 42.2C178.733 41.2667 176.667 39.4667 175.2 36.8C174 34.4 172.067 30.8 169.4 26C168.067 23.3333 167.8 20.6667 168.6 18C169.533 15.2 171.333 13.1333 174 11.8C176.667 10.4667 179.467 10.2667 182.4 11.2C185.333 12.1333 187.467 13.8667 188.8 16.4ZM28.8 97.2C23.7333 76.9333 19.9333 62 17.4 52.4C16.6 49.4667 16.9333 46.6667 18.4 44C20 41.3333 22.3333 39.6667 25.4 39L33.4 37C36.4667 36.3333 39.3333 36.8667 42 38.6C44.8 40.2 46.6667 42.5333 47.6 45.6C51.8667 60.6667 55.9333 75.6667 59.8 90.6C60.6 93.5333 60.1333 96.3333 58.4 99C56.8 101.533 54.4667 103.133 51.4 103.8L42.6 105.8C39.5333 106.467 36.6 106 33.8 104.4C31.1333 102.667 29.4667 100.267 28.8 97.2ZM97 101C93.9333 101.667 91.0667 101.2 88.4 99.6C85.7333 97.8667 84 95.4667 83.2 92.4C78.5333 74.1333 74.4 58.6 70.8 45.8C70 42.8667 70.4 40.1333 72 37.6C73.6 34.9333 75.9333 33.2667 79 32.6L87.8 30.6C90.8667 29.9333 93.7333 30.4667 96.4 32.2C99.2 33.8 101 36.1333 101.8 39.2C107.533 60.1333 111.667 75.6 114.2 85.6C115 88.5333 114.533 91.3333 112.8 94C111.2 96.6667 108.867 98.3333 105.8 99L97 101Z" fill="#171B1F"/>
</g>
<defs>
<clipPath id="clip0_706_1002">
<rect width="200" height="200" fill="white"/>
</clipPath>
</defs>
</svg>
